<?xml version="1.0" encoding="UTF-8" standalone="no"?>
<!-- Created with Inkscape (http://www.inkscape.org/) -->

<svg
   xmlns:dc="http://purl.org/dc/elements/1.1/"
   xmlns:cc="http://creativecommons.org/ns#"
   xmlns:rdf="http://www.w3.org/1999/02/22-rdf-syntax-ns#"
   xmlns:svg="http://www.w3.org/2000/svg"
   xmlns="http://www.w3.org/2000/svg"
   xmlns:sodipodi="http://sodipodi.sourceforge.net/DTD/sodipodi-0.dtd"
   xmlns:inkscape="http://www.inkscape.org/namespaces/inkscape"
   id="svg2"
   version="1.1"
   inkscape:version="0.48.4 r9939"
   width="2424.8408"
   height="1293.24"
   sodipodi:docname="logo.svg"
   inkscape:export-filename="/home/pivarski/diana/vegascope/logo-300px.png"
   inkscape:export-xdpi="11.134751"
   inkscape:export-ydpi="11.134751">
  <metadata
     id="metadata8">
    <rdf:RDF>
      <cc:Work
         rdf:about="">
        <dc:format>image/svg+xml</dc:format>
        <dc:type
           rdf:resource="http://purl.org/dc/dcmitype/StillImage" />
        <dc:title></dc:title>
      </cc:Work>
    </rdf:RDF>
  </metadata>
  <defs
     id="defs6" />
  <sodipodi:namedview
     pagecolor="#ffffff"
     bordercolor="#666666"
     borderopacity="1"
     objecttolerance="10"
     gridtolerance="10"
     guidetolerance="10"
     inkscape:pageopacity="0"
     inkscape:pageshadow="2"
     inkscape:window-width="954"
     inkscape:window-height="1027"
     id="namedview4"
     showgrid="false"
     inkscape:object-nodes="false"
     inkscape:snap-center="false"
     inkscape:zoom="0.31635389"
     inkscape:cx="907.66446"
     inkscape:cy="426.10521"
     inkscape:window-x="960"
     inkscape:window-y="0"
     inkscape:window-maximized="0"
     inkscape:current-layer="svg2"
     inkscape:snap-nodes="false"
     fit-margin-top="20"
     fit-margin-left="20"
     fit-margin-right="20"
     fit-margin-bottom="20" />
  <path
     style="font-size:medium;font-style:normal;font-variant:normal;font-weight:normal;font-stretch:normal;text-indent:0;text-align:start;text-decoration:none;line-height:normal;letter-spacing:normal;word-spacing:normal;text-transform:none;direction:ltr;block-progression:tb;writing-mode:lr-tb;text-anchor:start;baseline-shift:baseline;color:#000000;fill:#bcbcbc;fill-opacity:1;stroke:none;stroke-width:3.5;marker:none;visibility:visible;display:inline;overflow:visible;enable-background:accumulate;font-family:Sans;-inkscape-font-specification:Sans"
     d="m 1612.3468,876.2552 c 26.5813,-67.37453 41.1873,-140.75712 41.1873,-217.51707 0,-327.64136 -266.1086,-593.4375 -593.75,-593.4375 -72.22397,0 -141.44281,12.915578 -205.47178,36.56213 16.2793,3.44096 27.20018,12.00069 33.83368,25.24482 54.06272,-17.40706 111.7397,-26.80695 171.6381,-26.80695 308.726,0 558.75,249.71155 558.75,558.4375 0,67.91471 -12.0994,132.98867 -34.2614,193.18511 12.4545,6.70669 21.5004,15.14546 28.0741,24.33196 z m -210.702,224.568 c -94.4733,73.1454 -213.0582,116.6649 -341.8607,116.6649 -308.726,0 -558.4375,-250.02404 -558.4375,-558.74997 0,-73.51593 14.15974,-143.68548 39.90426,-207.93371 l -34.95936,-6.47406 c -25.79487,66.50672 -39.9449,138.81104 -39.9449,214.40777 0,327.64133 265.7961,593.74997 593.4375,593.74997 138.8375,0 266.626,-47.7831 367.7994,-127.7834 -12.3166,-8.4481 -18.4969,-14.9575 -25.9387,-23.8815 z"
     id="path3900"
     inkscape:connector-curvature="0"
     sodipodi:nodetypes="cssccsscccssccsscc" />
  <path
     id="use2993"
     style="color:#000000;fill:#bcbcbc;fill-opacity:1;fill-rule:nonzero;stroke:none;stroke-width:10;marker:none;visibility:visible;display:inline;overflow:visible;enable-background:accumulate"
     d="m 1059.8905,459.8769 c -24.9189,173.12663 -24.2601,173.37363 -198.94654,198.94643 174.68644,25.5728 174.02764,25.8198 198.94654,198.94643 24.9189,-173.12663 24.26,-173.37363 198.9465,-198.94643 -174.6865,-25.5728 -174.0276,-25.8198 -198.9465,-198.94643 z"
     inkscape:connector-curvature="0"
     sodipodi:nodetypes="ccccc" />
  <path
     id="path3851"
     style="color:#000000;fill:#bcbcbc;fill-opacity:1;fill-rule:nonzero;stroke:none;stroke-width:10;marker:none;visibility:visible;display:inline;overflow:visible;enable-background:accumulate"
     d="m 893.64906,742.06793 c -11.2705,78.3036 -10.9726,78.4153 -89.98156,89.9816 79.00896,11.56643 78.71106,11.67813 89.98156,89.98163 11.2706,-78.3035 10.9726,-78.4152 89.9817,-89.98163 -79.0091,-11.5663 -78.7111,-11.678 -89.9817,-89.9816 z"
     inkscape:connector-curvature="0"
     sodipodi:nodetypes="ccccc" />
  <path
     sodipodi:nodetypes="ccccc"
     inkscape:connector-curvature="0"
     d="m 663.1465,853.82666 c -11.2705,78.3036 -10.9726,78.4153 -89.9816,89.9816 79.009,11.5664 78.7111,11.6781 89.9816,89.98174 11.2706,-78.30364 10.9726,-78.41534 89.9817,-89.98174 -79.0091,-11.5663 -78.7111,-11.678 -89.9817,-89.9816 z"
     style="color:#000000;fill:#bcbcbc;fill-opacity:1;fill-rule:nonzero;stroke:none;stroke-width:10;marker:none;visibility:visible;display:inline;overflow:visible;enable-background:accumulate"
     id="path3853" />
  <path
     id="path3855"
     style="color:#000000;fill:#bcbcbc;fill-opacity:1;fill-rule:nonzero;stroke:none;stroke-width:10;marker:none;visibility:visible;display:inline;overflow:visible;enable-background:accumulate"
     d="m 865.01076,515.05786 c -8.4708,58.85257 -8.247,58.93657 -67.62986,67.62977 59.38286,8.6932 59.15906,8.7772 67.62986,67.6298 8.4711,-58.8526 8.2471,-58.9366 67.63,-67.6298 -59.3829,-8.6932 -59.1589,-8.7772 -67.63,-67.62977 z"
     inkscape:connector-curvature="0"
     sodipodi:nodetypes="ccccc" />
  <path
     sodipodi:nodetypes="ccccc"
     inkscape:connector-curvature="0"
     d="m 1346.9707,475.2437 c -5.4087,37.5782 -5.2658,37.6319 -43.1826,43.1826 37.9168,5.55073 37.7739,5.60443 43.1826,43.18263 5.4089,-37.5782 5.2659,-37.6319 43.1827,-43.18263 -37.9168,-5.5507 -37.7738,-5.6044 -43.1827,-43.1826 z"
     style="color:#000000;fill:#bcbcbc;fill-opacity:1;fill-rule:nonzero;stroke:none;stroke-width:10;marker:none;visibility:visible;display:inline;overflow:visible;enable-background:accumulate"
     id="path3859" />
  <path
     id="path3861"
     style="color:#000000;fill:#bcbcbc;fill-opacity:1;fill-rule:nonzero;stroke:none;stroke-width:10;marker:none;visibility:visible;display:inline;overflow:visible;enable-background:accumulate"
     d="m 1481.0813,75.70592 c -7.5084,52.16633 -7.31,52.24088 -59.9464,59.9464 52.6364,7.70557 52.438,7.78011 59.9464,59.94645 7.5087,-52.16634 7.3102,-52.24088 59.9465,-59.94645 -52.6363,-7.70552 -52.4378,-7.78007 -59.9465,-59.9464 z"
     inkscape:connector-curvature="0"
     sodipodi:nodetypes="ccccc" />
  <path
     style="color:#000000;fill:none;stroke:#bcbcbc;stroke-width:10;stroke-linecap:butt;stroke-linejoin:miter;stroke-miterlimit:4;stroke-opacity:1;stroke-dasharray:10, 10;stroke-dashoffset:0;marker:none;visibility:visible;display:inline;overflow:visible;enable-background:accumulate"
     d="M 663.1465,943.80826 893.64916,832.04953"
     id="path3863"
     inkscape:connector-curvature="0" />
  <path
     style="color:#000000;fill:none;stroke:#bcbcbc;stroke-width:10;stroke-linecap:butt;stroke-linejoin:miter;stroke-miterlimit:4;stroke-opacity:1;stroke-dasharray:10, 10;stroke-dashoffset:0;marker:none;visibility:visible;display:inline;overflow:visible;enable-background:accumulate"
     d="m 865.01076,582.68763 194.87974,76.1357"
     id="path3867"
     inkscape:connector-curvature="0" />
  <path
     style="color:#000000;fill:none;stroke:#bcbcbc;stroke-width:10;stroke-linecap:butt;stroke-linejoin:miter;stroke-miterlimit:4;stroke-opacity:1;stroke-dasharray:10, 10;stroke-dashoffset:0;marker:none;visibility:visible;display:inline;overflow:visible;enable-background:accumulate"
     d="m 893.64916,832.04953 -28.6384,-249.3619"
     id="path3869"
     inkscape:connector-curvature="0" />
  <path
     style="color:#000000;fill:none;stroke:#bcbcbc;stroke-width:10;stroke-linecap:butt;stroke-linejoin:miter;stroke-miterlimit:4;stroke-opacity:1;stroke-dasharray:10, 10;stroke-dashoffset:0;marker:none;visibility:visible;display:inline;overflow:visible;enable-background:accumulate"
     d="M 1059.8905,658.82333 893.64916,832.04953"
     id="path3871"
     inkscape:connector-curvature="0" />
  <path
     id="path3877"
     style="color:#000000;fill:#bcbcbc;fill-opacity:1;fill-rule:nonzero;stroke:none;stroke-width:10;marker:none;visibility:visible;display:inline;overflow:visible;enable-background:accumulate"
     d="m 557.674,751.84673 c -4.0089,27.8528 -3.903,27.8926 -32.0067,32.0067 28.1037,4.1143 27.9978,4.1541 32.0067,32.0068 4.0091,-27.8527 3.9031,-27.8925 32.0068,-32.0068 -28.1037,-4.1141 -27.9977,-4.1539 -32.0068,-32.0067 z"
     inkscape:connector-curvature="0"
     sodipodi:nodetypes="ccccc" />
  <text
     xml:space="preserve"
     style="font-size:1440px;font-style:normal;font-variant:normal;font-weight:normal;font-stretch:normal;text-align:center;line-height:125%;letter-spacing:0px;word-spacing:0px;text-anchor:middle;fill:#000000;fill-opacity:1;stroke:none;font-family:Liberation Serif;-inkscape-font-specification:Liberation Serif"
     x="-490.39078"
     y="-6.3731031"
     id="text3919"
     sodipodi:linespacing="125%"><tspan
       sodipodi:role="line"
       id="tspan3921"
       x="-490.39078"
       y="-6.3731031"></tspan></text>
  <path
     inkscape:connector-curvature="0"
     id="path3945"
     style="font-size:48px;font-style:normal;font-variant:normal;font-weight:bold;font-stretch:normal;text-align:center;line-height:125%;letter-spacing:0px;word-spacing:0px;text-anchor:middle;color:#000000;fill:#bcbcbc;fill-opacity:1;fill-rule:nonzero;stroke:none;stroke-width:10;marker:none;visibility:visible;display:inline;overflow:visible;enable-background:accumulate;font-family:Droid Serif;-inkscape-font-specification:Droid Serif"
     d="m 407.78595,76.4017 -25.17318,0 c -2.37356,3.5e-4 -4.4926,0.5089 -6.3569,1.52565 -1.86506,1.01742 -3.72969,2.96688 -5.5941,5.84832 -1.86495,2.7126 -3.81442,6.52672 -5.84829,11.44236 -2.03452,4.91631 -4.40776,11.35793 -7.11969,19.32489 l -106.28681,306.14685 -52.12636,0 L 88.416806,101.57491 c -1.69528,-4.91565 -3.89894,-8.98405 -6.6112,-12.20519 -2.5427,-3.38999 -5.3398,-6.01751 -8.39099,-7.88252 -2.88184,-1.86434 -5.8484,-3.13572 -8.8997,-3.81412 -3.0513,-0.8472 -5.84829,-1.27103 -8.39099,-1.27138 l -11.95099,0 0,-27.46168 171.889764,0 0,27.46168 -23.90178,0 c -2.54291,3.5e-4 -5.00087,0.3394 -7.37399,1.0171 -2.37334,0.5089 -4.57711,1.44123 -6.6111,2.79703 -1.86484,1.35647 -3.39054,3.13638 -4.577,5.33976 -1.18677,2.20405 -1.78,4.91632 -1.77989,8.1368 -1.1e-4,3.39065 0.5088,7.28953 1.52559,11.69664 1.01656,4.23822 2.03409,7.79807 3.0513,10.67954 l 53.14346,160.4474 c 1.35591,3.89902 2.71205,8.47595 4.0684,13.73084 1.52548,5.25513 2.96635,10.76441 4.32269,16.52785 1.35592,5.76367 2.54259,11.52724 3.5598,17.29069 1.18645,5.59414 2.03409,10.76439 2.5428,15.51077 0.5088,-2.8817 1.35591,-6.78058 2.54269,-11.69664 1.35603,-5.0854 2.88162,-10.50993 4.577,-16.27359 1.69495,-5.93297 3.39012,-11.78127 5.0855,-17.54497 1.86441,-5.93293 3.55958,-11.2727 5.0855,-16.0193 l 53.65195,-158.41321 c 0.6781,-1.86437 1.35592,-3.89857 2.0342,-6.10259 0.8473,-2.37292 1.52538,-4.74615 2.0342,-7.11969 0.6781,-2.37292 1.18634,-4.66139 1.5257,-6.86542 0.5088,-2.20339 0.7627,-3.98332 0.7627,-5.33977 -3.3e-4,-5.76323 -1.94969,-10.17066 -5.84829,-13.22229 -3.72969,-3.05095 -8.73046,-4.5766 -15.0023,-4.57695 l -27.20737,0 0,-27.46168 134.51139,0 0,27.46168" />
  <path
     inkscape:connector-curvature="0"
     id="path3947"
     style="font-size:48px;font-style:normal;font-variant:normal;font-weight:bold;font-stretch:normal;text-align:center;line-height:125%;letter-spacing:0px;word-spacing:0px;text-anchor:middle;color:#000000;fill:#bcbcbc;fill-opacity:1;fill-rule:nonzero;stroke:none;stroke-width:10;marker:none;visibility:visible;display:inline;overflow:visible;enable-background:accumulate;font-family:Droid Serif;-inkscape-font-specification:Droid Serif"
     d="m 473.49221,168.70346 c -14.57853,2.4e-4 -26.19038,7.20469 -34.83556,21.61335 -8.47594,14.40912 -13.13767,35.51391 -13.9852,63.31443 l 90.01333,0 c -2.1e-4,-13.22212 -0.7627,-25.08827 -2.2885,-35.59847 -1.52581,-10.50982 -3.98377,-19.40942 -7.37399,-26.69886 -3.22098,-7.28898 -7.45884,-12.88301 -12.71369,-16.78214 -5.08571,-3.89863 -11.35777,-5.84807 -18.81639,-5.84831 m 4.83131,257.07181 c -22.03737,0 -41.53172,-3.22082 -58.48326,-9.66245 -16.78219,-6.44161 -30.85212,-15.76501 -42.20956,-27.97022 -11.35766,-12.20515 -19.91822,-27.12258 -25.68178,-44.75237 -5.76357,-17.79913 -8.6454,-38.05633 -8.6454,-60.77167 0,-24.41021 2.88183,-45.85404 8.6454,-64.33153 5.76356,-18.47707 14.15455,-33.90306 25.17317,-46.27801 11.01852,-12.37444 24.49512,-21.61308 40.42967,-27.71594 16.10402,-6.27183 34.4118,-9.40788 54.92335,-9.40818 18.81618,3e-4 35.76783,2.71255 50.85496,8.1368 15.08681,5.25528 27.88523,13.13779 38.39558,23.64756 10.5097,10.51026 18.56176,23.56302 24.15608,39.15832 5.59377,15.59571 8.39077,33.73397 8.39109,54.4148 l 0,26.69885 -170.61847,0 c 0.5088,17.46032 2.37313,32.46252 5.5941,45.00664 3.39023,12.5443 7.96712,22.8848 13.73079,31.02153 5.93302,8.13684 13.05272,14.15467 21.35908,18.0535 8.47572,3.89893 18.13811,5.84836 28.98738,5.84833 8.98422,3e-5 17.29047,-1.0171 24.91888,-3.0513 7.62808,-2.20368 14.49347,-5.17021 20.59628,-8.89962 6.27195,-3.89883 11.69648,-8.39101 16.27359,-13.47656 4.74625,-5.25495 8.64507,-10.84899 11.69669,-16.78214 9.32314,5.08556 13.98477,13.56139 13.98509,25.42748 -3.2e-4,7.45877 -2.03452,14.57846 -6.10259,21.35909 -4.06862,6.61116 -10.34078,12.45948 -18.81639,17.54495 -8.47605,5.08551 -19.15553,9.1539 -32.03857,12.20519 -12.71391,3.0513 -27.88566,4.57695 -45.51516,4.57695" />
  <path
     inkscape:connector-curvature="0"
     id="path3949"
     style="font-size:48px;font-style:normal;font-variant:normal;font-weight:bold;font-stretch:normal;text-align:center;line-height:125%;letter-spacing:0px;word-spacing:0px;text-anchor:middle;color:#000000;fill:#bcbcbc;fill-opacity:1;fill-rule:nonzero;stroke:none;stroke-width:10;marker:none;visibility:visible;display:inline;overflow:visible;enable-background:accumulate;font-family:Droid Serif;-inkscape-font-specification:Droid Serif"
     d="m 872.84585,151.41277 c -3.2e-4,3.89914 -0.5934,7.71326 -1.7799,11.44236 -1.18688,3.56011 -3.22108,6.69616 -6.10259,9.40817 -2.71259,2.71251 -6.52669,4.91622 -11.44239,6.61115 -4.74668,1.52588 -10.67982,2.2887 -17.79919,2.28846 -3.2e-4,-3.55959 -0.5934,-6.69565 -1.78,-9.40816 -1.01764,-2.71201 -2.45818,-5.00048 -4.32259,-6.86542 -1.86495,-1.86442 -3.98388,-3.22056 -6.3569,-4.0684 -2.37345,-1.01688 -4.83152,-1.52539 -7.37399,-1.52565 -2.88195,2.6e-4 -6.01808,0.5936 -9.4082,1.77993 -3.22097,1.18688 -5.76378,2.45825 -7.62819,3.81412 3.55958,3.89913 6.86518,8.39132 9.91669,13.47657 3.05108,4.91622 5.67862,10.25598 7.88249,16.0193 2.37302,5.76379 4.23775,11.78161 5.5941,18.05352 1.35592,6.10279 2.03398,12.3749 2.0342,18.81633 -2.2e-4,13.05295 -2.11925,25.17338 -6.3569,36.36129 -4.06861,11.01872 -10.42551,20.5964 -19.07058,28.73306 -8.64557,8.13691 -19.57936,14.49377 -32.80143,19.07061 -13.2224,4.57705 -28.90276,6.86552 -47.04086,6.86542 -1.86474,10e-5 -4.23797,10e-5 -7.1197,0 -2.88183,-0.1695 -5.76367,-0.2542 -8.64529,-0.2543 -2.88194,-0.1695 -5.67894,-0.3389 -8.39109,-0.5085 -2.5428,-0.3389 -4.49227,-0.5932 -5.8483,-0.7628 -2.20387,1.18671 -4.49226,2.71236 -6.86539,4.57694 -2.20388,1.69527 -4.23807,3.6447 -6.10259,5.84832 -1.69528,2.2038 -3.13614,4.66179 -4.3227,7.37397 -1.01764,2.71234 -1.5257,5.59412 -1.5257,8.64535 0,5.76362 2.20366,10.00154 6.61119,12.71374 4.57679,2.71231 10.50992,4.06845 17.79919,4.06839 l 63.06014,0 c 17.29058,6e-5 32.20793,1.86474 44.75233,5.59405 12.544,3.55989 22.88456,8.73014 31.02157,15.51075 8.30604,6.7807 14.40864,15.17176 18.30779,25.17321 3.89861,9.83196 5.84808,20.93528 5.84829,33.31 -2.1e-4,16.10403 -3.05151,30.42817 -9.15389,42.97243 -6.10281,12.71369 -15.42628,23.39317 -27.97017,32.03868 -12.37498,8.81472 -28.05519,15.51054 -47.04082,20.08765 -18.8165,4.74635 -41.10795,7.11959 -66.87425,7.11969 -41.02311,-10e-5 -71.62081,-6.18754 -91.79323,-18.56208 -20.00295,-12.20527 -30.00448,-30.17402 -30.00448,-53.90622 0,-18.64685 6.01787,-32.97098 18.0536,-42.97244 12.03562,-9.83196 29.49576,-15.68028 52.38055,-17.54496 -4.74646,-1.86467 -9.40819,-4.15315 -13.98509,-6.86542 -4.577,-2.71225 -8.64539,-5.93306 -12.20519,-9.66244 -3.5599,-3.89885 -6.44163,-8.30628 -8.64539,-13.22229 -2.20366,-4.91594 -3.3056,-10.42522 -3.3055,-16.52786 -10e-5,-5.76351 1.10184,-11.10327 3.3055,-16.01932 2.37323,-4.9159 5.59399,-9.5776 9.66249,-13.98511 4.06829,-4.57686 8.89959,-8.81477 14.49369,-12.71374 5.76346,-4.06829 12.03551,-8.05193 18.81628,-11.95092 -7.62829,-2.71214 -14.74799,-6.44151 -21.35908,-11.18809 -6.44163,-4.91585 -12.03573,-10.76416 -16.78208,-17.54495 -4.577,-6.78052 -8.22163,-14.49352 -10.9339,-23.13901 -2.71226,-8.64517 -4.0684,-18.22285 -4.0684,-28.73305 0,-30.51276 8.81486,-54.16029 26.44458,-70.94267 17.79918,-16.95137 45.26086,-25.42719 82.38504,-25.42748 12.37465,2.9e-4 23.81693,1.61069 34.32717,4.83122 10.67927,3.05157 19.91801,6.78094 27.71588,11.18809 2.88161,-3.05102 6.01764,-6.27184 9.40819,-9.66244 3.55968,-3.55956 7.5432,-6.78038 11.95085,-9.66244 4.40721,-2.88149 9.32324,-5.25472 14.74799,-7.11969 5.42431,-1.86439 11.44207,-2.79673 18.05348,-2.79703 6.27184,3e-4 11.69637,0.8479 16.27359,2.54275 4.74624,1.52594 8.64507,3.6449 11.69669,6.35687 3.22055,2.71255 5.59378,5.8486 7.1197,9.40816 1.69484,3.56013 2.54237,7.37425 2.54269,11.44237 M 646.28708,472.30757 c -1.1e-4,14.40888 5.17023,25.00364 15.51079,31.78441 10.50992,6.95001 25.7664,10.42519 45.76946,10.42529 30.51276,-1e-4 52.71948,-4.40753 66.61994,-13.22229 13.90014,-8.81496 20.85037,-21.78302 20.85059,-38.90413 -2.2e-4,-11.0186 -3.47539,-18.73159 -10.42529,-23.139 -6.95034,-4.40744 -17.46037,-6.61116 -31.53008,-6.61115 l -60.51745,0 c -5.25507,-10e-6 -10.59487,0.4238 -16.01929,1.27137 -5.42463,1.0171 -10.42529,2.96652 -15.00218,5.84833 -4.40754,2.88176 -8.05217,6.86539 -10.93379,11.95091 -2.88184,5.25498 -4.32281,12.12039 -4.3227,20.59626 m 34.83567,-241.0525 c -1.1e-4,9.15406 0.5934,17.46037 1.7799,24.91893 1.35602,7.28936 3.47495,13.56147 6.3569,18.81633 2.88161,5.25515 6.61098,9.32354 11.18809,12.20519 4.57678,2.88191 10.25561,4.3228 17.03638,4.32267 6.95002,1.3e-4 12.71358,-1.35601 17.29069,-4.0684 4.57678,-2.88164 8.22141,-6.95004 10.93379,-12.20519 2.71215,-5.42438 4.57678,-11.86599 5.5941,-19.32488 1.18645,-7.62807 1.77968,-16.10389 1.77989,-25.42748 -2.1e-4,-9.66224 -0.5934,-18.39234 -1.77989,-26.1903 -1.18678,-7.96706 -3.22098,-14.74771 -6.1026,-20.34199 -2.71248,-5.5938 -6.35711,-9.91647 -10.9339,-12.96802 -4.577,-3.22055 -10.34056,-4.83096 -17.29068,-4.83121 -6.78077,2.5e-4 -12.45949,1.61066 -17.03639,4.83121 -4.577,3.22107 -8.30636,7.71325 -11.18809,13.47657 -2.71237,5.76379 -4.66184,12.62921 -5.84829,20.59626 -1.18678,7.96748 -1.78001,16.69758 -1.7799,26.19031" />
  <path
     inkscape:connector-curvature="0"
     id="path3951"
     style="font-size:48px;font-style:normal;font-variant:normal;font-weight:bold;font-stretch:normal;text-align:center;line-height:125%;letter-spacing:0px;word-spacing:0px;text-anchor:middle;color:#000000;fill:#bcbcbc;fill-opacity:1;fill-rule:nonzero;stroke:none;stroke-width:10;marker:none;visibility:visible;display:inline;overflow:visible;enable-background:accumulate;font-family:Droid Serif;-inkscape-font-specification:Droid Serif"
     d="m 945.60146,343.13596 c -10e-5,14.91752 2.3731,26.1056 7.1197,33.56428 4.7464,7.45876 12.2051,11.18812 22.3762,11.18809 7.4586,3e-5 14.1544,-1.52562 20.0877,-4.57695 6.10254,-3.22077 11.27274,-7.71295 15.51084,-13.47657 4.4072,-5.76349 7.7128,-12.71367 9.9167,-20.85053 2.373,-8.30622 3.5596,-17.54487 3.5599,-27.71595 l 0,-39.15832 -23.3933,1.52565 c -10.34074,0.5087 -19.07084,2.20385 -26.19044,5.0855 -7.1198,2.71239 -12.7985,6.52651 -17.0364,11.44236 -4.238,4.9161 -7.2893,10.93393 -9.1539,18.05351 -1.8647,7.1198 -2.7971,15.4261 -2.797,24.91893 m 46.278,-176.4667 c -6.6112,2.5e-4 -12.2053,1.44114 -16.7821,4.32266 -4.4075,2.71252 -7.9674,6.6114 -10.6796,11.69664 -2.7124,4.91622 -4.6617,10.84929 -5.8483,17.79924 -1.0176,6.78088 -1.5257,14.23959 -1.5256,22.37618 -23.3934,2e-4 -41.0231,-2.6273 -52.88915,-7.88251 -11.69669,-5.25481 -17.54509,-14.23917 -17.54499,-26.95313 -1e-4,-9.49269 2.797,-17.62947 8.3911,-24.41038 5.76345,-6.7804 13.47648,-12.28968 23.13894,-16.52787 9.8319,-4.23763 21.1894,-7.28893 34.0728,-9.15389 13.0527,-2.03392 26.9531,-3.051 41.7011,-3.0513 18.30774,3e-4 34.24224,1.6107 47.80364,4.83123 13.7307,3.05157 25.0883,8.0523 34.0729,15.00221 9.1537,6.95043 16.0191,16.10432 20.5963,27.46167 4.5767,11.18832 6.8651,24.91915 6.8654,41.19252 l 0,132.73144 c -3e-4,7.11976 0.509,13.05283 1.5256,17.79924 1.1863,4.74651 2.9663,8.56062 5.3398,11.44237 2.373,2.7123 5.5938,4.66173 9.6625,5.84832 4.068,1.18664 8.984,1.77995 14.7479,1.77992 l 2.0342,0 0,27.71595 -96.8788,0 -10.9338,-35.85274 -4.5768,0 c -5.7638,6.95021 -11.1884,13.0528 -16.2736,18.30779 -5.0857,5.0855 -10.51034,9.32342 -16.27364,12.71374 -5.7638,3.39033 -12.2902,5.84831 -19.5792,7.37396 -7.1198,1.69516 -15.5956,2.54275 -25.4275,2.54275 -11.5272,0 -22.2915,-1.69517 -32.2929,-5.0855 -9.83202,-3.39032 -18.47731,-8.56057 -25.93604,-15.51076 -7.28926,-7.11967 -13.05283,-15.93452 -17.29068,-26.44457 -4.23797,-10.67949 -6.3569,-23.2237 -6.3569,-37.63267 0,-28.30916 9.66249,-49.24443 28.98738,-62.80588 19.49434,-13.56116 48.73594,-20.93513 87.72484,-22.12191 l 42.71824,-1.52564 0,-28.73306 c -3e-4,-8.64514 -0.34,-16.6124 -1.0166,-23.90183 -0.678,-7.28898 -2.1191,-13.56109 -4.3227,-18.81634 -2.2039,-5.25476 -5.5095,-9.32316 -9.9167,-12.20519 -4.2381,-2.88152 -9.91694,-4.32241 -17.03654,-4.32266" />
  <path
     inkscape:connector-curvature="0"
     id="path3953"
     style="font-size:48px;font-style:normal;font-variant:normal;font-weight:bold;font-stretch:normal;text-align:center;line-height:125%;letter-spacing:0px;word-spacing:0px;text-anchor:middle;color:#000000;fill:#bcbcbc;fill-opacity:1;fill-rule:nonzero;stroke:none;stroke-width:10;marker:none;visibility:visible;display:inline;overflow:visible;enable-background:accumulate;font-family:Droid Serif;-inkscape-font-specification:Droid Serif"
     d="m 1237.6218,1124.4267 c -21.5626,-10e-5 -39.5313,-2.0313 -53.9062,-6.0938 -14.3751,-4.0625 -25.9376,-9.2969 -34.6875,-15.7031 -8.5938,-6.4062 -14.7657,-13.5937 -18.5157,-21.5625 -3.5937,-7.9687 -5.3906,-15.8593 -5.3906,-23.6719 0,-8.2812 1.4844,-15.2343 4.4531,-20.8594 3.125,-5.6249 7.1875,-10.2343 12.1875,-13.8281 5.1563,-3.5936 10.9375,-6.1718 17.3438,-7.7344 6.5624,-1.5624 13.3593,-2.3436 20.3906,-2.3437 -10e-5,13.7501 1.6406,25.8594 4.9219,36.3281 3.2812,10.3126 7.8124,18.9844 13.5937,26.0156 5.7812,6.8751 12.6562,12.1094 20.625,15.7032 8.1249,3.4375 16.953,5.1562 26.4844,5.1562 9.3749,0 17.7342,-1.3281 25.0781,-3.9844 7.3436,-2.6562 13.5936,-6.3281 18.75,-11.0156 5.1561,-4.6875 9.0624,-10.1562 11.7188,-16.4062 2.656,-6.4062 3.9842,-13.2812 3.9844,-20.625 -2e-4,-8.125 -1.6409,-15.3125 -4.9219,-21.5625 -3.2814,-6.4062 -8.2814,-12.2656 -15,-17.5782 -6.5627,-5.46864 -14.922,-10.62484 -25.0781,-15.46874 -10.0002,-4.9999 -21.7189,-10.3124 -35.1563,-15.9375 -16.7188,-6.8749 -30.8594,-13.9061 -42.4219,-21.0938 -11.4063,-7.3435 -20.625,-15.2342 -27.6562,-23.6718 -7.0313,-8.4373 -12.1094,-17.578 -15.2344,-27.4219 -2.9688,-9.8435 -4.4531,-20.6248 -4.4531,-32.3438 0,-14.6872 2.9687,-27.9683 8.9062,-39.84363 5.9375,-11.8747 14.1406,-22.031 24.6094,-30.4688 10.4687,-8.4371 22.8906,-14.9215 37.2656,-19.4531 14.3749,-4.5309 29.9999,-6.7965 46.875,-6.7969 17.6561,4e-4 32.8905,1.4848 45.7032,4.4532 12.8123,2.8128 23.3591,6.719 31.6406,11.7187 8.4373,5.0003 14.6873,10.9378 18.75,17.8125 4.0622,6.7191 6.0935,13.9847 6.0937,21.7969 -2e-4,5.6253 -1.2502,10.85963 -3.75,15.70313 -2.3439,4.8439 -6.0158,9.0627 -11.0156,12.6562 -4.844,3.594 -11.0158,6.4065 -18.5156,8.4375 -7.344,2.0315 -15.9377,3.0471 -25.7813,3.0468 -10e-5,-6.7185 -0.938,-13.906 -2.8125,-21.5625 -1.7189,-7.8121 -4.6095,-14.99963 -8.6718,-21.56243 -4.0627,-6.7184 -9.3752,-12.2653 -15.9375,-16.6406 -6.4064,-4.3747 -14.2189,-6.5622 -23.4375,-6.5625 -6.4064,3e-4 -12.5002,0.938 -18.2813,2.8125 -5.7813,1.8753 -10.8595,4.6878 -15.2344,8.4375 -4.2188,3.7503 -7.5782,8.4378 -10.0781,14.0625 -2.5001,5.469 -3.7501,11.79723 -3.75,18.98433 -10e-5,6.719 1.0937,13.0471 3.2813,18.9844 2.1874,5.9377 6.1717,11.7971 11.9531,17.5781 5.9374,5.6252 13.9842,11.3283 24.1406,17.1094 10.3124,5.6252 23.5936,11.7189 39.8438,18.2812 16.406,6.719 30.3904,13.5939 41.9531,20.625 11.5623,7.0314 21.0154,14.6095 28.3594,22.7344 7.4997,7.9689 12.8903,16.797 16.1718,26.4844 3.4373,9.5313 5.156,20.15634 5.1563,31.87504 -3e-4,15.4688 -3.0471,29.6875 -9.1406,42.6562 -6.094,12.8125 -14.844,23.8282 -26.25,33.0469 -11.4065,9.2187 -25.1565,16.4062 -41.25,21.5625 -15.9377,5.1562 -33.9064,7.7343 -53.9063,7.7344" />
  <path
     inkscape:connector-curvature="0"
     id="path3955"
     style="font-size:48px;font-style:normal;font-variant:normal;font-weight:bold;font-stretch:normal;text-align:center;line-height:125%;letter-spacing:0px;word-spacing:0px;text-anchor:middle;color:#000000;fill:#bcbcbc;fill-opacity:1;fill-rule:nonzero;stroke:none;stroke-width:10;marker:none;visibility:visible;display:inline;overflow:visible;enable-background:accumulate;font-family:Droid Serif;-inkscape-font-specification:Droid Serif"
     d="m 1507.9541,1124.4267 c -17.6563,-10e-5 -33.8282,-2.2657 -48.5156,-6.7969 -14.5313,-4.5313 -27.0313,-12.0313 -37.5,-22.5 -10.4688,-10.4687 -18.5938,-24.1406 -24.375,-41.0156 -5.7813,-16.875 -8.6719,-37.5781 -8.6719,-62.10944 0,-25.9374 2.9688,-47.578 8.9063,-64.9219 6.0937,-17.3435 14.3749,-31.2498 24.8437,-41.7187 10.625,-10.4685 23.125,-17.8904 37.5,-22.2657 14.3749,-4.531 29.8437,-6.7966 46.4063,-6.7968 15.4686,2e-4 29.1404,1.3283 41.0156,3.9843 11.8748,2.5003 21.7967,6.0159 29.7656,10.5469 7.9686,4.5315 13.9842,9.9221 18.0469,16.1719 4.2185,6.094 6.3279,12.6565 6.3281,19.6875 -2e-4,5.1564 -0.938,10.2346 -2.8125,15.2344 -1.7189,4.8439 -4.9221,9.1408 -9.6093,12.8906 -4.5315,3.7502 -10.8596,6.797 -18.9844,9.1406 -7.969,2.3439 -18.2033,3.5158 -30.7031,3.5156 -2e-4,-8.281 -0.547,-16.1717 -1.6407,-23.6718 -0.938,-7.4998 -2.5783,-14.0623 -4.9218,-19.6875 -2.344,-5.6248 -5.5471,-10.0779 -9.6094,-13.3594 -3.9064,-3.4373 -8.9064,-5.156 -15,-5.1563 -7.0314,3e-4 -13.3595,1.719 -18.9844,5.1563 -5.4689,3.2815 -10.2345,8.9846 -14.2969,17.1094 -3.9063,8.1252 -6.9532,18.9845 -9.1406,32.5781 -2.0313,13.5939 -3.047,30.6251 -3.0469,51.0937 -10e-5,32.50014 4.4531,56.79704 13.3594,72.89074 8.9061,16.0937 23.4374,24.1406 43.5938,24.1406 8.2811,0 16.0154,-0.937 23.2031,-2.8125 7.3436,-2.0312 13.9842,-4.7656 19.9219,-8.2031 5.9373,-3.5938 11.0935,-7.7344 15.4687,-12.4219 4.531,-4.8437 8.2029,-10 11.0156,-15.4688 3.9061,2.3438 6.7967,5.547 8.6719,9.6094 1.8748,3.9063 2.8123,8.0469 2.8125,12.4219 -2e-4,6.0938 -1.7971,12.2656 -5.3906,18.5156 -3.594,6.25 -9.219,11.9531 -16.875,17.1094 -7.5002,5 -17.1096,9.1406 -28.8281,12.4219 -11.719,3.1249 -25.7033,4.6874 -41.9532,4.6875" />
  <path
     inkscape:connector-curvature="0"
     id="path3957"
     style="font-size:48px;font-style:normal;font-variant:normal;font-weight:bold;font-stretch:normal;text-align:center;line-height:125%;letter-spacing:0px;word-spacing:0px;text-anchor:middle;color:#000000;fill:#bcbcbc;fill-opacity:1;fill-rule:nonzero;stroke:none;stroke-width:10;marker:none;visibility:visible;display:inline;overflow:visible;enable-background:accumulate;font-family:Droid Serif;-inkscape-font-specification:Droid Serif"
     d="m 1861.5228,990.12976 c -3e-4,45.15634 -10.6253,78.82824 -31.875,101.01564 -21.094,22.1875 -52.1877,33.2812 -93.2813,33.2813 -19.2189,-10e-5 -36.4845,-2.7344 -51.7969,-8.2032 -15.3125,-5.625 -28.3594,-13.9843 -39.1406,-25.0781 -10.625,-11.0937 -18.8281,-25.0781 -24.6094,-41.9531 -5.625,-16.8749 -8.4375,-36.5624 -8.4375,-59.06254 0,-45.1561 10.5469,-78.7498 31.6407,-100.7813 21.2499,-22.031 52.4999,-33.0466 93.75,-33.0468 19.2185,2e-4 36.406,2.7346 51.5625,8.2031 15.3122,5.469 28.281,13.7502 38.9062,24.8437 10.781,11.094 18.9841,25.0784 24.6094,41.9532 5.781,16.7189 8.6716,36.3282 8.6719,58.8281 m -174.6094,0 c -10e-5,17.03134 0.859,32.03134 2.5781,45.00004 1.8749,12.9688 4.7655,23.8282 8.6719,32.5781 4.0624,8.75 9.2967,15.3907 15.7031,19.9219 6.4061,4.375 14.2186,6.5625 23.4375,6.5625 9.2186,0 16.953,-2.1875 23.2031,-6.5625 6.4061,-4.5312 11.5624,-11.1719 15.4688,-19.9219 4.0623,-8.7499 6.9529,-19.6093 8.6719,-32.5781 1.7185,-12.9687 2.5779,-27.9687 2.5781,-45.00004 -2e-4,-17.1874 -0.938,-32.1874 -2.8125,-45 -1.719,-12.9686 -4.6096,-23.7498 -8.6719,-32.3438 -3.9064,-8.5935 -9.0627,-14.9997 -15.4687,-19.2187 -6.4065,-4.3748 -14.2189,-6.5623 -23.4375,-6.5625 -9.2189,2e-4 -17.0314,2.1877 -23.4375,6.5625 -6.4064,4.219 -11.5626,10.6252 -15.4688,19.2187 -3.9063,8.594 -6.7188,19.3752 -8.4375,32.3438 -1.7188,12.8126 -2.5782,27.8126 -2.5781,45" />
  <path
     inkscape:connector-curvature="0"
     id="path3959"
     style="font-size:48px;font-style:normal;font-variant:normal;font-weight:bold;font-stretch:normal;text-align:center;line-height:125%;letter-spacing:0px;word-spacing:0px;text-anchor:middle;color:#000000;fill:#bcbcbc;fill-opacity:1;fill-rule:nonzero;stroke:none;stroke-width:10;marker:none;visibility:visible;display:inline;overflow:visible;enable-background:accumulate;font-family:Droid Serif;-inkscape-font-specification:Droid Serif"
     d="m 1854.722,1209.5048 c 3.5937,-10e-5 7.3437,-0.391 11.25,-1.1719 4.0624,-0.625 7.7343,-2.0313 11.0156,-4.2187 3.4375,-2.1876 6.2499,-5.3126 8.4375,-9.375 2.3437,-4.0626 3.5156,-9.5314 3.5156,-16.4063 l 0,-256.87504 c 0,-7.3435 -0.859,-13.2029 -2.5781,-17.5781 -1.5626,-4.3748 -3.8282,-7.7342 -6.7969,-10.0781 -2.8125,-2.3436 -6.25,-3.9061 -10.3125,-4.6875 -3.9063,-0.781 -8.125,-1.1717 -12.6562,-1.1719 l -3.2813,0 0,-25.5469 93.9844,0 8.6719,37.5 2.1093,0 c 3.4374,-6.2498 7.4218,-11.9529 11.9532,-17.1094 4.6873,-5.156 9.9998,-9.6091 15.9375,-13.3593 6.0936,-3.7498 12.8904,-6.6404 20.3906,-8.6719 7.4998,-2.031 15.8592,-3.0466 25.0781,-3.0469 15.9373,3e-4 29.9998,2.6565 42.1875,7.9688 12.3435,5.1565 22.656,13.2814 30.9375,24.375 8.281,10.9377 14.531,24.8439 18.75,41.7187 4.3747,16.8752 6.5622,36.9533 6.5625,60.2344 -3e-4,23.12514 -2.1096,43.12514 -6.3281,60.00004 -4.219,16.7188 -10.469,30.5469 -18.75,41.4844 -8.1253,10.9375 -18.2034,19.0625 -30.2344,24.375 -11.8752,5.1562 -25.6252,7.7343 -41.25,7.7343 -18.2814,0 -33.1251,-3.4375 -44.5312,-10.3125 -11.4064,-7.0312 -20.547,-16.4062 -27.4219,-28.125 l -3.2813,0 c 0.625,7.3438 1.2499,14.5313 1.875,21.5625 0.469,5.9375 0.859,12.2657 1.1719,18.9844 0.469,6.7187 0.703,12.5781 0.703,17.5781 l 0,33.0469 c -10e-5,6.8749 1.0937,12.3437 3.2813,16.4063 2.3436,4.0624 5.1561,7.1874 8.4375,9.375 3.4374,2.1874 7.1092,3.5936 11.0156,4.2187 4.0624,0.781 7.8124,1.1718 11.25,1.1719 l 10.5469,0 0,25.5469 -157.2656,0 0,-25.5469 5.625,0 m 156.0938,-119.5313 c 16.0936,10e-5 27.5779,-8.0468 34.4531,-24.1406 7.0311,-16.2499 10.5467,-40.703 10.5469,-73.35944 -2e-4,-31.8748 -3.5158,-56.3279 -10.5469,-73.3593 -6.8752,-17.0311 -18.2033,-25.5467 -33.9843,-25.5469 -9.5314,2e-4 -17.5002,2.1877 -23.9063,6.5625 -6.4064,4.2189 -11.4845,10.5471 -15.2344,18.9844 -3.7501,8.2814 -6.4063,18.5939 -7.9687,30.9375 -1.5626,12.1876 -2.3439,26.172 -2.3438,41.9531 -10e-5,16.56264 0.781,31.01574 2.3438,43.35944 1.5624,12.1875 4.2186,22.3438 7.9687,30.4687 3.7499,8.125 8.7499,14.2188 15,18.2813 6.2499,3.9062 14.1405,5.8594 23.6719,5.8593" />
  <path
     inkscape:connector-curvature="0"
     id="path3961"
     style="font-size:48px;font-style:normal;font-variant:normal;font-weight:bold;font-stretch:normal;text-align:center;line-height:125%;letter-spacing:0px;word-spacing:0px;text-anchor:middle;color:#000000;fill:#bcbcbc;fill-opacity:1;fill-rule:nonzero;stroke:none;stroke-width:10;marker:none;visibility:visible;display:inline;overflow:visible;enable-background:accumulate;font-family:Droid Serif;-inkscape-font-specification:Droid Serif"
     d="m 2270.9362,887.47346 c -13.4376,3e-4 -24.1407,6.6409 -32.1093,19.9219 -7.8126,13.2815 -12.1095,32.7346 -12.8907,58.3594 l 82.9688,0 c -2e-4,-12.1874 -0.703,-23.1248 -2.1094,-32.8125 -1.4064,-9.6873 -3.672,-17.8904 -6.7969,-24.6094 -2.9689,-6.7185 -6.8751,-11.8748 -11.7187,-15.4687 -4.6877,-3.5936 -10.4689,-5.3904 -17.3438,-5.3907 m 4.4532,236.95324 c -20.3127,-10e-5 -38.2814,-2.9688 -53.9063,-8.9063 -15.4688,-5.9375 -28.4376,-14.5312 -38.9062,-25.7812 -10.4688,-11.25 -18.3594,-25 -23.6719,-41.25 -5.3125,-16.4062 -7.9688,-35.0781 -7.9688,-56.01574 0,-22.4998 2.6563,-42.2654 7.9688,-59.2968 5.3125,-17.0311 13.0468,-31.2498 23.2031,-42.6563 10.1562,-11.406 22.5781,-19.9216 37.2656,-25.5469 14.8437,-5.781 31.7187,-8.6716 50.625,-8.6718 17.3436,2e-4 32.9686,2.5002 46.875,7.5 13.9061,4.844 25.7029,12.1096 35.3907,21.7968 9.6872,9.6878 17.1091,21.719 22.2656,36.0938 5.156,14.3752 7.7341,31.0939 7.7344,50.1562 l 0,24.6094 -157.2657,0 c 0.469,16.09394 2.1874,29.92204 5.1563,41.48444 3.1249,11.5625 7.3436,21.0938 12.6562,28.5937 5.4687,7.5001 12.0312,13.0469 19.6875,16.6407 7.8124,3.5937 16.7186,5.3906 26.7188,5.3906 8.2811,0 15.9373,-0.937 22.9687,-2.8125 7.0311,-2.0312 13.3592,-4.7656 18.9844,-8.2031 5.7811,-3.5938 10.7811,-7.7344 15,-12.4219 4.3748,-4.8437 7.9685,-10 10.7813,-15.4688 8.5935,4.6876 12.8903,12.5001 12.8906,23.4375 -3e-4,6.8751 -1.8753,13.4376 -5.625,19.6875 -3.7502,6.0938 -9.5315,11.4844 -17.3438,16.1719 -7.8127,4.6875 -17.6564,8.4375 -29.5312,11.25 -11.7189,2.8125 -25.7033,4.2187 -41.9531,4.2188" />
  <path
     inkscape:connector-curvature="0"
     id="path3974"
     d="m 893.64916,832.04953 -48.5103,338.06837"
     style="color:#000000;fill:none;stroke:#bcbcbc;stroke-width:10;stroke-linecap:butt;stroke-linejoin:miter;stroke-miterlimit:4;stroke-opacity:1;stroke-dasharray:10, 10;stroke-dashoffset:0;marker:none;visibility:visible;display:inline;overflow:visible;enable-background:accumulate"
     sodipodi:nodetypes="cc" />
</svg>
